# xmcd
#
# Track frame offsets:
#	150
#	23077
#	40751
#	61562
#	85357
#	106348
#	122633
#	141826
#	159884
#	175785
#	197817
#
# Disc length: 2864 seconds
#
# Revision: 0
# Processed by: cddbd v1.5.2PL0 Copyright (c) Steve Scherf et al.
# Submitted via: dBpowerAMP V4.0
#
DISCID=830b2e0b
DTITLE=Dana GILLESPIE - Back to the blues
DYEAR=1900
DGENRE=
TTITLE0=Who's got the blues to blame?
TTITLE1=Too blue to boogie?
TTITLE2=Blue night
TTITLE3=Baby blue
TTITLE4=Blue water
TTITLE5=Back to the blues
TTITLE6=Travelling man blues
TTITLE7=Guardian blue angel
TTITLE8=The sky will still be blue
TTITLE9=Turning over a blue leaf
TTITLE10=Queen of the blues
EXTD=
EXTT0=
EXTT1=
EXTT2=
EXTT3=
EXTT4=
EXTT5=
EXTT6=
EXTT7=
EXTT8=
EXTT9=
EXTT10=
PLAYORDER=
